<svg width="26.000000" height="26.000000" viewBox="0 0 26 26" fill="none" xmlns="http://www.w3.org/2000/svg" xmlns:xlink="http://www.w3.org/1999/xlink">
	<desc>
			Created with Pixso.
	</desc>
	<defs/>
	<path id="path" d="M13 26C11.27 26 9.61 25.67 8.02 25.01C6.43 24.35 5.02 23.41 3.8 22.19C2.58 20.97 1.64 19.56 0.98 17.97C0.32 16.38 0 14.72 0 13C0 11.27 0.32 9.61 0.98 8.02C1.64 6.43 2.58 5.02 3.8 3.8C5.02 2.58 6.43 1.64 8.02 0.98C9.61 0.32 11.27 0 13 0C14.72 0 16.38 0.32 17.97 0.98C19.56 1.64 20.97 2.58 22.19 3.8C23.41 5.02 24.35 6.43 25.01 8.02C25.67 9.61 26 11.27 26 13C26 14.72 25.67 16.38 25.01 17.97C24.35 19.56 23.41 20.97 22.19 22.19C20.97 23.41 19.56 24.35 17.97 25.01C16.38 25.67 14.72 26 13 26ZM13 2C11.54 2 10.13 2.27 8.79 2.83C7.44 3.39 6.25 4.19 5.22 5.22C4.19 6.25 3.39 7.44 2.83 8.79C2.27 10.13 2 11.54 2 13C2 14.45 2.27 15.86 2.83 17.2C3.39 18.55 4.19 19.74 5.22 20.77C6.25 21.8 7.44 22.6 8.79 23.16C10.13 23.72 11.54 24 13 24C14.45 24 15.86 23.72 17.2 23.16C18.55 22.6 19.74 21.8 20.77 20.77C21.8 19.74 22.6 18.55 23.16 17.2C23.72 15.86 24 14.45 24 13C24 11.54 23.72 10.13 23.16 8.79C22.6 7.44 21.8 6.25 20.77 5.22C19.74 4.19 18.55 3.39 17.2 2.83C15.86 2.27 14.45 2 13 2Z" fill="#FFFFFF" fill-opacity="1.000000" fill-rule="nonzero"/>
	<path id="path" d="M13 20C12.33 20 12 19.66 12 19L12 7C12 6.33 12.33 6 13 6C13.66 6 14 6.33 14 7L14 19C14 19.66 13.66 20 13 20Z" fill="#FFFFFF" fill-opacity="1.000000" fill-rule="nonzero"/>
	<path id="path" d="M19 14L7 14C6.33 14 6 13.66 6 13C6 12.33 6.33 12 7 12L19 12C19.66 12 20 12.33 20 13C20 13.66 19.66 14 19 14Z" fill="#FFFFFF" fill-opacity="1.000000" fill-rule="nonzero"/>
</svg>
