<svg width="32.000000" height="32.000000" viewBox="0 0 32 32" fill="none" xmlns="http://www.w3.org/2000/svg" xmlns:xlink="http://www.w3.org/1999/xlink">
	<desc>
			Created with Pixso.
	</desc>
	<defs>
		<clipPath id="clip5_1">
			<rect id="edit" width="32.000000" height="32.000000" fill="white" fill-opacity="0"/>
		</clipPath>
	</defs>
	<g clip-path="url(#clip5_1)">
		<path id="path" d="M2 29C1.7 29 1.45 28.89 1.25 28.66C1.05 28.44 0.96 28.18 1 27.89L1.77 20.89C1.79 20.65 1.89 20.46 2.06 20.29L18.42 3.94C19.04 3.31 19.8 3 20.68 3C21.56 3 22.32 3.31 22.95 3.94L26.06 7.05C26.68 7.67 26.99 8.43 26.99 9.31C26.99 10.19 26.68 10.95 26.06 11.58L9.71 27.93C9.54 28.09 9.35 28.19 9.12 28.22L2.12 28.99L2 29ZM3.73 21.45L3.13 26.87L8.55 26.27L24.65 10.17C24.88 9.93 25 9.65 25 9.32C25 8.98 24.88 8.7 24.65 8.47L21.53 5.35C21.29 5.11 21.01 4.99 20.68 4.99C20.34 4.99 20.06 5.11 19.83 5.35L3.73 21.45Z" fill="#FFFFFF" fill-opacity="1.000000" fill-rule="nonzero"/>
		<path id="path" d="M23 14.21C22.72 14.21 22.48 14.11 22.29 13.92L16.08 7.69C15.6 7.21 15.6 6.74 16.08 6.27C16.55 5.79 17.02 5.79 17.5 6.27L23.73 12.5C24.2 12.97 24.2 13.44 23.73 13.92C23.52 14.12 23.28 14.21 23 14.21Z" fill="#FFFFFF" fill-opacity="1.000000" fill-rule="nonzero"/>
		<rect id="rect" x="8.299927" y="20.288910" width="11.010000" height="2.000000" transform="rotate(-45 8.299927 20.288910)" fill="#FFFFFF" fill-opacity="1.000000"/>
		<path id="path" d="M30 29L14 29C13.33 29 13 28.66 13 28C13 27.33 13.33 27 14 27L30 27C30.66 27 31 27.33 31 28C31 28.66 30.66 29 30 29Z" fill="#FFFFFF" fill-opacity="1.000000" fill-rule="nonzero"/>
	</g>
</svg>
