<svg width="250.312012" height="250.312012" viewBox="0 0 250.312 250.312" fill="none" xmlns="http://www.w3.org/2000/svg" xmlns:xlink="http://www.w3.org/1999/xlink">
	<desc>
			Created with Pixso.
	</desc>
	<defs/>
	<path id="path" d="M244.18 214.6L189.8 160.22C189.51 159.93 189.17 159.73 188.87 159.46C199.57 143.23 205.82 123.8 205.82 102.91C205.82 46.07 159.74 0 102.91 0C46.07 0 0 46.07 0 102.91C0 159.74 46.07 205.82 102.91 205.82C123.8 205.82 143.23 199.57 159.46 188.87C159.73 189.17 159.93 189.51 160.22 189.8L214.6 244.18C222.77 252.35 236.01 252.35 244.18 244.18C252.35 236.01 252.35 222.77 244.18 214.6ZM102.91 170.14C65.77 170.14 35.67 140.04 35.67 102.91C35.67 65.77 65.77 35.67 102.91 35.67C140.04 35.67 170.14 65.77 170.14 102.91C170.14 140.04 140.04 170.14 102.91 170.14Z" fill="#FFFFFF" fill-opacity="1.000000" fill-rule="evenodd"/>
</svg>
