<svg width="30.000000" height="30.000000" viewBox="0 0 30 30" fill="none" xmlns="http://www.w3.org/2000/svg" xmlns:xlink="http://www.w3.org/1999/xlink">
	<desc>
			Created with Pixso.
	</desc>
	<defs/>
	<path id="path" d="M25.99 9.12C25.99 8.86 26.24 8.65 26.55 8.65C26.86 8.65 27.11 8.86 27.11 9.12L27.11 27.1C27.11 27.9 26.72 28.62 26.09 29.15C25.47 29.67 24.61 30 23.66 30L6.33 30C5.38 30 4.52 29.67 3.9 29.15C3.27 28.62 2.88 27.9 2.88 27.1L2.88 9.12C2.88 8.86 3.13 8.65 3.44 8.65C3.75 8.65 4 8.86 4 9.12L4 27.1C4 27.64 4.26 28.13 4.69 28.48C5.11 28.84 5.69 29.06 6.33 29.06L23.66 29.06C24.3 29.06 24.88 28.84 25.3 28.48C25.72 28.13 25.99 27.64 25.99 27.11L25.99 9.12Z" fill="#FFFFFF" fill-opacity="1.000000" fill-rule="nonzero"/>
	<path id="path" d="M10.83 25.89C10.83 26.15 10.58 26.36 10.27 26.36C9.96 26.36 9.71 26.15 9.71 25.89L9.71 9.24C9.71 8.98 9.96 8.77 10.27 8.77C10.58 8.77 10.83 8.98 10.83 9.24L10.83 25.89Z" fill="#FFFFFF" fill-opacity="1.000000" fill-rule="nonzero"/>
	<path id="path" d="M15.55 25.89C15.55 26.15 15.3 26.36 15 26.36C14.69 26.36 14.44 26.15 14.44 25.89L14.44 9.24C14.44 8.98 14.69 8.77 15 8.77C15.3 8.77 15.55 8.98 15.55 9.24L15.55 25.89Z" fill="#FFFFFF" fill-opacity="1.000000" fill-rule="nonzero"/>
	<path id="path" d="M20.28 25.89C20.28 26.15 20.03 26.36 19.72 26.36C19.42 26.36 19.17 26.15 19.17 25.89L19.17 9.24C19.17 8.98 19.42 8.77 19.72 8.77C20.03 8.77 20.28 8.98 20.28 9.24L20.28 25.89Z" fill="#FFFFFF" fill-opacity="1.000000" fill-rule="nonzero"/>
	<path id="path" d="M10.5 2.89C10.5 3.14 10.25 3.35 9.94 3.35C9.63 3.35 9.38 3.14 9.38 2.89C9.38 2.09 9.77 1.37 10.39 0.84C11.02 0.32 11.88 0 12.83 0L17.16 0C18.11 0 18.97 0.32 19.6 0.84C20.22 1.37 20.61 2.09 20.61 2.89C20.61 3.14 20.36 3.35 20.05 3.35C19.74 3.35 19.49 3.14 19.49 2.89C19.49 2.35 19.23 1.86 18.81 1.51C18.38 1.15 17.8 0.93 17.16 0.93L12.83 0.93C12.19 0.93 11.61 1.15 11.19 1.51C10.76 1.86 10.5 2.35 10.5 2.89Z" fill="#FFFFFF" fill-opacity="1.000000" fill-rule="nonzero"/>
	<path id="path" d="M2 4.23L27.99 4.23C28.54 4.23 29.04 4.42 29.4 4.73C29.77 5.03 30 5.45 30 5.91L30 7.12C30 7.38 29.74 7.59 29.44 7.59L29.42 7.59L0.55 7.59C0.25 7.59 0 7.38 0 7.12L0 7.11L0 5.91C0 5.45 0.22 5.03 0.58 4.73C0.95 4.42 1.45 4.23 2 4.23ZM27.99 5.17L2 5.17C1.75 5.17 1.53 5.25 1.37 5.39C1.21 5.52 1.11 5.71 1.11 5.91L1.11 6.66L28.88 6.66L28.88 5.91C28.88 5.71 28.78 5.52 28.62 5.39C28.46 5.26 28.24 5.17 27.99 5.17Z" fill="#FFFFFF" fill-opacity="1.000000" fill-rule="nonzero"/>
</svg>
